<?xml version="1.0" encoding="UTF-8" standalone="no"?>
<!-- Created with Inkscape (http://www.inkscape.org/) -->

<svg
   xmlns:dc="http://purl.org/dc/elements/1.1/"
   xmlns:cc="http://creativecommons.org/ns#"
   xmlns:rdf="http://www.w3.org/1999/02/22-rdf-syntax-ns#"
   xmlns:svg="http://www.w3.org/2000/svg"
   xmlns="http://www.w3.org/2000/svg"
   xmlns:sodipodi="http://sodipodi.sourceforge.net/DTD/sodipodi-0.dtd"
   xmlns:inkscape="http://www.inkscape.org/namespaces/inkscape"
   width="271.40866mm"
   height="142.18872mm"
   viewBox="0 0 961.68423 503.8183"
   id="svg4286"
   version="1.1"
   inkscape:version="0.91 r13725"
   sodipodi:docname="di-in-angular2-5.svg">
  <defs
     id="defs4288" />
  <sodipodi:namedview
     id="base"
     pagecolor="#ffffff"
     bordercolor="#666666"
     borderopacity="1.0"
     inkscape:pageopacity="0.0"
     inkscape:pageshadow="2"
     inkscape:zoom="0.35"
     inkscape:cx="-38.443614"
     inkscape:cy="111.90915"
     inkscape:document-units="px"
     inkscape:current-layer="layer1"
     showgrid="false"
     fit-margin-top="0"
     fit-margin-left="0"
     fit-margin-right="0"
     fit-margin-bottom="0"
     inkscape:window-width="1680"
     inkscape:window-height="994"
     inkscape:window-x="1920"
     inkscape:window-y="30"
     inkscape:window-maximized="1" />
  <metadata
     id="metadata4291">
    <rdf:RDF>
      <cc:Work
         rdf:about="">
        <dc:format>image/svg+xml</dc:format>
        <dc:type
           rdf:resource="http://purl.org/dc/dcmitype/StillImage" />
        <dc:title></dc:title>
      </cc:Work>
    </rdf:RDF>
  </metadata>
  <g
     inkscape:label="Livello 1"
     inkscape:groupmode="layer"
     id="layer1"
     transform="translate(155.12781,-140.45306)">
    <g
       style="fill:none;stroke:none;stroke-linecap:square;stroke-miterlimit:10"
       id="g4176"
       transform="translate(-155.96992,363.18371)">
      <rect
         y="-222.73065"
         x="0.84210527"
         height="503.8183"
         width="961.6842"
         id="rect4344"
         style="fill:#ffffff;fill-opacity:1;fill-rule:nonzero;stroke:none;stroke-width:4;stroke-linecap:round;stroke-linejoin:miter;stroke-miterlimit:4;stroke-dasharray:none;stroke-dashoffset:0;stroke-opacity:1" />
    </g>
    <g
       style="fill:none;stroke:none;stroke-linecap:square;stroke-miterlimit:10"
       id="g4211"
       transform="translate(-155.96992,339.18371)">
      <path
         d="m 36.850395,78.13184 0,0 c 0,-17.0849 13.850071,-30.935 30.934998,-30.935 l 189.909517,0 c 8.20447,0 16.07291,3.25922 21.87436,9.06067 5.80142,5.80142 9.06064,13.66986 9.06064,21.87433 l 0,123.7363 c 0,17.08493 -13.85007,30.935 -30.935,30.935 l -189.909517,0 c -17.084927,0 -30.934998,-13.85007 -30.934998,-30.935 z"
         id="path4276"
         inkscape:connector-curvature="0"
         style="fill:#9fc5e8;fill-rule:nonzero" />
      <path
         d="m 36.850395,78.13184 0,0 c 0,-17.0849 13.850071,-30.935 30.934998,-30.935 l 189.909517,0 c 8.20447,0 16.07291,3.25922 21.87436,9.06067 5.80142,5.80142 9.06064,13.66986 9.06064,21.87433 l 0,123.7363 c 0,17.08493 -13.85007,30.935 -30.935,30.935 l -189.909517,0 c -17.084927,0 -30.934998,-13.85007 -30.934998,-30.935 z"
         id="path4278"
         inkscape:connector-curvature="0"
         style="fill-rule:nonzero;stroke:#0b5394;stroke-width:2;stroke-linecap:butt;stroke-linejoin:round" />
      <path
         d="m 78.527275,96.40625 168.440945,0 0,87.24411 -168.440945,0 z"
         id="path4280"
         inkscape:connector-curvature="0"
         style="fill:#000000;fill-opacity:0;fill-rule:nonzero" />
      <path
         d="m 100.89619,154.42828 0,-28.64063 3.78125,0 0,28.64063 -3.78125,0 z m 10.01953,0 0,-20.75 3.15625,0 0,2.95312 q 2.29688,-3.42187 6.60938,-3.42187 1.875,0 3.4375,0.6875 1.57812,0.67187 2.35937,1.76562 0.78125,1.09375 1.09375,2.59375 0.20313,0.96875 0.20313,3.42188 l 0,12.75 -3.51563,0 0,-12.625 q 0,-2.14063 -0.42187,-3.20313 -0.40625,-1.0625 -1.45313,-1.70312 -1.04687,-0.64063 -2.45312,-0.64063 -2.23438,0 -3.875,1.4375 -1.625,1.42188 -1.625,5.40625 l 0,11.32813 -3.51563,0 z m 22.23046,-24.54688 0,-4.09375 3.51563,0 0,4.09375 -3.51563,0 z m -4.46875,32.59375 0.67188,-2.98437 q 1.04687,0.26562 1.65625,0.26562 1.07812,0 1.60937,-0.71875 0.53125,-0.70312 0.53125,-3.54687 l 0,-21.8125 3.51563,0 0,21.89062 q 0,3.82813 -1,5.32813 -1.26563,1.95312 -4.21875,1.95312 -1.4375,0 -2.76563,-0.375 z m 27.57422,-14.73437 3.625,0.45312 q -0.85937,3.1875 -3.1875,4.95313 -2.3125,1.75 -5.9375,1.75 -4.54687,0 -7.21875,-2.79688 -2.65625,-2.8125 -2.65625,-7.875 0,-5.23437 2.6875,-8.125 2.70313,-2.89062 7,-2.89062 4.15625,0 6.79688,2.84375 2.64062,2.82812 2.64062,7.96875 0,0.3125 -0.0312,0.9375 l -15.46875,0 q 0.20313,3.40625 1.9375,5.23437 1.73438,1.8125 4.34375,1.8125 1.92188,0 3.28125,-1.01562 1.375,-1.01563 2.1875,-3.25 z m -11.54687,-5.67188 11.57812,0 q -0.23437,-2.625 -1.32812,-3.9375 -1.67188,-2.03125 -4.35938,-2.03125 -2.42187,0 -4.07812,1.625 -1.64063,1.625 -1.8125,4.34375 z m 33.12109,4.76563 3.45312,0.4375 q -0.5625,3.57812 -2.90625,5.60937 -2.32812,2.01563 -5.71875,2.01563 -4.26562,0 -6.85937,-2.78125 -2.57813,-2.78125 -2.57813,-7.98438 0,-3.35937 1.10938,-5.875 1.125,-2.51562 3.39062,-3.78125 2.28125,-1.26562 4.95313,-1.26562 3.375,0 5.51562,1.71875 2.15625,1.70312 2.76563,4.84375 l -3.42188,0.53125 q -0.48437,-2.09375 -1.73437,-3.14063 -1.23438,-1.0625 -2.98438,-1.0625 -2.65625,0 -4.32812,1.90625 -1.65625,1.90625 -1.65625,6.03125 0,4.17188 1.59375,6.07813 1.60937,1.89062 4.1875,1.89062 2.07812,0 3.45312,-1.26562 1.39063,-1.28125 1.76563,-3.90625 z m 14.14062,4.45312 0.51563,3.09375 q -1.48438,0.32813 -2.65625,0.32813 -1.92188,0 -2.98438,-0.60938 -1.04687,-0.60937 -1.48437,-1.59375 -0.42188,-0.98437 -0.42188,-4.15625 l 0,-11.9375 -2.57812,0 0,-2.73437 2.57812,0 0,-5.125 3.5,-2.10938 0,7.23438 3.53125,0 0,2.73437 -3.53125,0 0,12.14063 q 0,1.5 0.1875,1.9375 0.1875,0.42187 0.59375,0.67187 0.42188,0.25 1.20313,0.25 0.59375,0 1.54687,-0.125 z m 2.12891,-7.23437 q 0,-5.76563 3.20313,-8.53125 2.67187,-2.3125 6.53125,-2.3125 4.26562,0 6.98437,2.8125 2.71875,2.79687 2.71875,7.73437 0,4.01563 -1.20312,6.3125 -1.20313,2.28125 -3.5,3.5625 -2.29688,1.26563 -5,1.26563 -4.35938,0 -7.04688,-2.79688 -2.6875,-2.79687 -2.6875,-8.04687 z m 3.60938,0 q 0,3.98437 1.73437,5.96875 1.75,1.98437 4.39063,1.98437 2.60937,0 4.34375,-1.98437 1.75,-2 1.75,-6.07813 0,-3.85937 -1.75,-5.82812 -1.75,-1.98438 -4.34375,-1.98438 -2.64063,0 -4.39063,1.96875 -1.73437,1.96875 -1.73437,5.95313 z m 19.90234,10.375 0,-20.75 3.17188,0 0,3.15625 q 1.20312,-2.21875 2.23437,-2.92188 1.03125,-0.70312 2.25,-0.70312 1.78125,0 3.625,1.14062 l -1.21875,3.26563 q -1.28125,-0.76563 -2.57812,-0.76563 -1.15625,0 -2.07813,0.70313 -0.90625,0.6875 -1.29687,1.90625 -0.59375,1.875 -0.59375,4.10937 l 0,10.85938 -3.51563,0 z"
         id="path4282"
         inkscape:connector-curvature="0"
         style="fill:#000000;fill-rule:nonzero" />
      <path
         d="m 674.1312,78.16074 0,0 c 0,-17.08493 13.8501,-30.93503 30.935,-30.93503 l 189.90955,0 c 8.20447,0 16.07287,3.25922 21.87433,9.06067 5.80145,5.80142 9.06067,13.66986 9.06067,21.87436 l 0,123.73627 c 0,17.08493 -13.8501,30.935 -30.935,30.935 l -189.90955,0 c -17.0849,0 -30.935,-13.85007 -30.935,-30.935 z"
         id="path4284"
         inkscape:connector-curvature="0"
         style="fill:#fff2cc;fill-rule:nonzero" />
      <path
         d="m 674.1312,78.16074 0,0 c 0,-17.08493 13.8501,-30.93503 30.935,-30.93503 l 189.90955,0 c 8.20447,0 16.07287,3.25922 21.87433,9.06067 5.80145,5.80142 9.06067,13.66986 9.06067,21.87436 l 0,123.73627 c 0,17.08493 -13.8501,30.935 -30.935,30.935 l -189.90955,0 c -17.0849,0 -30.935,-13.85007 -30.935,-30.935 z"
         id="path4286"
         inkscape:connector-curvature="0"
         style="fill-rule:nonzero;stroke:#666666;stroke-width:2;stroke-linecap:butt;stroke-linejoin:round" />
      <path
         d="m 715.80817,96.43512 168.44092,0 0,87.24411 -168.44092,0 z"
         id="path4288"
         inkscape:connector-curvature="0"
         style="fill:#000000;fill-opacity:0;fill-rule:nonzero" />
      <path
         d="m 744.1634,140.50406 q 0,-7.125 3.82813,-11.15625 3.82812,-4.03125 9.875,-4.03125 3.96875,0 7.15625,1.89062 3.1875,1.89063 4.84375,5.28125 1.67187,3.39063 1.67187,7.6875 0,4.35938 -1.76562,7.79688 -1.75,3.4375 -4.96875,5.20312 -3.21875,1.76563 -6.95313,1.76563 -4.04687,0 -7.23437,-1.95313 -3.17188,-1.95312 -4.8125,-5.32812 -1.64063,-3.375 -1.64063,-7.15625 z m 3.90625,0.0625 q 0,5.17187 2.78125,8.15625 2.78125,2.98437 6.98438,2.98437 4.28125,0 7.03125,-3 2.76562,-3.01562 2.76562,-8.54687 0,-3.5 -1.1875,-6.10938 -1.17187,-2.60937 -3.45312,-4.03125 -2.26563,-1.4375 -5.09375,-1.4375 -4.03125,0 -6.9375,2.76563 -2.89063,2.75 -2.89063,9.21875 z m 31.14453,13.89062 -3.25,0 0,-28.64062 3.51563,0 0,10.21875 q 2.21875,-2.79688 5.67187,-2.79688 1.92188,0 3.625,0.78125 1.71875,0.76563 2.8125,2.17188 1.10938,1.39062 1.73438,3.35937 0.625,1.96875 0.625,4.21875 0,5.32813 -2.64063,8.25 -2.64062,2.90625 -6.32812,2.90625 -3.67188,0 -5.76563,-3.0625 l 0,2.59375 z m -0.0312,-10.53125 q 0,3.73438 1.01563,5.39063 1.65625,2.71875 4.48437,2.71875 2.3125,0 3.98438,-2 1.6875,-2 1.6875,-5.96875 0,-4.0625 -1.60938,-6 -1.60937,-1.9375 -3.90625,-1.9375 -2.29687,0 -3.98437,2.01562 -1.67188,2 -1.67188,5.78125 z m 19.02735,-14.01562 0,-4.09375 3.51562,0 0,4.09375 -3.51562,0 z m -4.46875,32.59375 0.67187,-2.98438 q 1.04688,0.26563 1.65625,0.26563 1.07813,0 1.60938,-0.71875 0.53125,-0.70313 0.53125,-3.54688 l 0,-21.8125 3.51562,0 0,21.89063 q 0,3.82812 -1,5.32812 -1.26562,1.95313 -4.21875,1.95313 -1.4375,0 -2.76562,-0.375 z m 27.57421,-14.73438 3.625,0.45313 q -0.85937,3.1875 -3.1875,4.95312 -2.3125,1.75 -5.9375,1.75 -4.54687,0 -7.21875,-2.79687 -2.65625,-2.8125 -2.65625,-7.875 0,-5.23438 2.6875,-8.125 2.70313,-2.89063 7,-2.89063 4.15625,0 6.79688,2.84375 2.64062,2.82813 2.64062,7.96875 0,0.3125 -0.0312,0.9375 l -15.46875,0 q 0.20313,3.40625 1.9375,5.23438 1.73438,1.8125 4.34375,1.8125 1.92188,0 3.28125,-1.01563 1.375,-1.01562 2.1875,-3.25 z m -11.54687,-5.67187 11.57812,0 q -0.23437,-2.625 -1.32812,-3.9375 -1.67188,-2.03125 -4.35938,-2.03125 -2.42187,0 -4.07812,1.625 -1.64063,1.625 -1.8125,4.34375 z m 33.12109,4.76562 3.45313,0.4375 q -0.5625,3.57813 -2.90625,5.60938 -2.32813,2.01562 -5.71875,2.01562 -4.26563,0 -6.85938,-2.78125 -2.57812,-2.78125 -2.57812,-7.98437 0,-3.35938 1.10937,-5.875 1.125,-2.51563 3.39063,-3.78125 2.28125,-1.26563 4.95312,-1.26563 3.375,0 5.51563,1.71875 2.15625,1.70313 2.76562,4.84375 l -3.42187,0.53125 q -0.48438,-2.09375 -1.73438,-3.14062 -1.23437,-1.0625 -2.98437,-1.0625 -2.65625,0 -4.32813,1.90625 -1.65625,1.90625 -1.65625,6.03125 0,4.17187 1.59375,6.07812 1.60938,1.89063 4.1875,1.89063 2.07813,0 3.45313,-1.26563 1.39062,-1.28125 1.76562,-3.90625 z m 14.14063,4.45313 0.51562,3.09375 q -1.48437,0.32812 -2.65625,0.32812 -1.92187,0 -2.98437,-0.60937 -1.04688,-0.60938 -1.48438,-1.59375 -0.42187,-0.98438 -0.42187,-4.15625 l 0,-11.9375 -2.57813,0 0,-2.73438 2.57813,0 0,-5.125 3.5,-2.10937 0,7.23437 3.53125,0 0,2.73438 -3.53125,0 0,12.14062 q 0,1.5 0.1875,1.9375 0.1875,0.42188 0.59375,0.67188 0.42187,0.25 1.20312,0.25 0.59375,0 1.54688,-0.125 z"
         id="path4290"
         inkscape:connector-curvature="0"
         style="fill:#000000;fill-rule:nonzero" />
      <path
         d="m 355.4908,78.13184 0,0 c 0,-17.0849 13.85007,-30.935 30.935,-30.935 l 189.90952,0 c 8.20447,0 16.07293,3.25922 21.87433,9.06067 5.80145,5.80142 9.06067,13.66986 9.06067,21.87433 l 0,123.7363 c 0,17.08493 -13.85004,30.935 -30.935,30.935 l -189.90952,0 c -17.08493,0 -30.935,-13.85007 -30.935,-30.935 z"
         id="path4292"
         inkscape:connector-curvature="0"
         style="fill:#b6d7a8;fill-rule:nonzero" />
      <path
         d="m 355.4908,78.13184 0,0 c 0,-17.0849 13.85007,-30.935 30.935,-30.935 l 189.90952,0 c 8.20447,0 16.07293,3.25922 21.87433,9.06067 5.80145,5.80142 9.06067,13.66986 9.06067,21.87433 l 0,123.7363 c 0,17.08493 -13.85004,30.935 -30.935,30.935 l -189.90952,0 c -17.08493,0 -30.935,-13.85007 -30.935,-30.935 z"
         id="path4294"
         inkscape:connector-curvature="0"
         style="fill-rule:nonzero;stroke:#666666;stroke-width:2;stroke-linecap:butt;stroke-linejoin:round" />
      <path
         d="m 397.1677,96.40625 168.44095,0 0,87.24411 -168.44095,0 z"
         id="path4296"
         inkscape:connector-curvature="0"
         style="fill:#000000;fill-opacity:0;fill-rule:nonzero" />
      <path
         d="m 410.00925,154.42828 0,-28.64063 10.79687,0 q 2.84375,0 4.35938,0.28125 2.10937,0.34375 3.53125,1.34375 1.42187,0.98438 2.28125,2.76563 0.875,1.76562 0.875,3.89062 0,3.65625 -2.32813,6.1875 -2.3125,2.53125 -8.39062,2.53125 l -7.34375,0 0,11.64063 -3.78125,0 z m 3.78125,-15.01563 7.40625,0 q 3.67187,0 5.20312,-1.35937 1.54688,-1.375 1.54688,-3.85938 0,-1.79687 -0.90625,-3.07812 -0.90625,-1.28125 -2.39063,-1.6875 -0.95312,-0.25 -3.53125,-0.25 l -7.32812,0 0,10.23437 z m 22.39844,15.01563 0,-20.75 3.17187,0 0,3.15625 q 1.20313,-2.21875 2.23438,-2.92188 1.03125,-0.70312 2.25,-0.70312 1.78125,0 3.625,1.14062 l -1.21875,3.26563 q -1.28125,-0.76563 -2.57813,-0.76563 -1.15625,0 -2.07812,0.70313 -0.90625,0.6875 -1.29688,1.90625 -0.59375,1.875 -0.59375,4.10937 l 0,10.85938 -3.51562,0 z m 12.05469,-10.375 q 0,-5.76563 3.20312,-8.53125 2.67188,-2.3125 6.53125,-2.3125 4.26563,0 6.98438,2.8125 2.71875,2.79687 2.71875,7.73437 0,4.01563 -1.20313,6.3125 -1.20312,2.28125 -3.5,3.5625 -2.29687,1.26563 -5,1.26563 -4.35937,0 -7.04687,-2.79688 -2.6875,-2.79687 -2.6875,-8.04687 z m 3.60937,0 q 0,3.98437 1.73438,5.96875 1.75,1.98437 4.39062,1.98437 2.60938,0 4.34375,-1.98437 1.75,-2 1.75,-6.07813 0,-3.85937 -1.75,-5.82812 -1.75,-1.98438 -4.34375,-1.98438 -2.64062,0 -4.39062,1.96875 -1.73438,1.96875 -1.73438,5.95313 z m 25.71484,10.375 -7.89062,-20.75 3.70312,0 4.45313,12.42187 q 0.71875,2.01563 1.32812,4.1875 0.46875,-1.64062 1.3125,-3.95312 l 4.60938,-12.65625 3.60937,0 -7.84375,20.75 -3.28125,0 z m 14.25,-24.59375 0,-4.04688 3.51563,0 0,4.04688 -3.51563,0 z m 0,24.59375 0,-20.75 3.51563,0 0,20.75 -3.51563,0 z m 22.32425,0 0,-2.625 q -1.96875,3.09375 -5.7969,3.09375 -2.48438,0 -4.5625,-1.35938 -2.07813,-1.375 -3.21875,-3.82812 -1.14063,-2.45313 -1.14063,-5.64063 0,-3.09375 1.03125,-5.625 1.03125,-2.53125 3.09375,-3.875 2.07813,-1.35937 4.64063,-1.35937 1.875,0 3.32812,0.79687 1.46878,0.79688 2.39066,2.0625 l 0,-10.28125 3.5,0 0,28.64063 -3.26563,0 z m -11.1094,-10.35938 q 0,3.98438 1.67187,5.96875 1.6875,1.96875 3.96875,1.96875 2.3125,0 3.92191,-1.875 1.60937,-1.89062 1.60937,-5.76562 0,-4.25 -1.64062,-6.23438 -1.64066,-2 -4.04691,-2 -2.34375,0 -3.92187,1.92188 -1.5625,1.90625 -1.5625,6.01562 z m 34.1055,3.67188 3.625,0.45312 q -0.85938,3.1875 -3.1875,4.95313 -2.3125,1.75 -5.9375,1.75 -4.54688,0 -7.21875,-2.79688 -2.65625,-2.8125 -2.65625,-7.875 0,-5.23437 2.6875,-8.125 2.70312,-2.89062 7,-2.89062 4.15625,0 6.79687,2.84375 2.64063,2.82812 2.64063,7.96875 0,0.3125 -0.0312,0.9375 l -15.46875,0 q 0.20312,3.40625 1.9375,5.23437 1.73437,1.8125 4.34375,1.8125 1.92187,0 3.28125,-1.01562 1.375,-1.01563 2.1875,-3.25 z m -11.54688,-5.67188 11.57813,0 q -0.23438,-2.625 -1.32813,-3.9375 -1.67187,-2.03125 -4.35937,-2.03125 -2.42188,0 -4.07813,1.625 -1.64062,1.625 -1.8125,4.34375 z m 19.54297,12.35938 0,-20.75 3.17188,0 0,3.15625 q 1.20312,-2.21875 2.23437,-2.92188 1.03125,-0.70312 2.25,-0.70312 1.78125,0 3.625,1.14062 l -1.21875,3.26563 q -1.28125,-0.76563 -2.57812,-0.76563 -1.15625,0 -2.07813,0.70313 -0.90625,0.6875 -1.29687,1.90625 -0.59375,1.875 -0.59375,4.10937 l 0,10.85938 -3.51563,0 z"
         id="path4298"
         inkscape:connector-curvature="0"
         style="fill:#000000;fill-rule:nonzero" />
      <path
         d="m 288.6299,140 66.86615,0"
         id="path4300"
         inkscape:connector-curvature="0"
         style="fill:#000000;fill-opacity:0;fill-rule:nonzero" />
      <path
         d="m 288.6299,140 42.86615,0"
         id="path4302"
         inkscape:connector-curvature="0"
         style="fill-rule:evenodd;stroke:#000000;stroke-width:4;stroke-linecap:butt;stroke-linejoin:round" />
      <path
         d="M 331.49606,146.60693 349.64846,140 l -18.1524,-6.60694 z"
         id="path4304"
         inkscape:connector-curvature="0"
         style="fill:#000000;fill-rule:evenodd;stroke:#000000;stroke-width:4;stroke-linecap:butt" />
      <path
         d="m 607.2703,140 66.86615,0.0315"
         id="path4306"
         inkscape:connector-curvature="0"
         style="fill:#000000;fill-opacity:0;fill-rule:nonzero" />
      <path
         d="m 607.2703,140 42.86615,0.0202"
         id="path4308"
         inkscape:connector-curvature="0"
         style="fill-rule:evenodd;stroke:#000000;stroke-width:4;stroke-linecap:butt;stroke-linejoin:round" />
      <path
         d="m 650.13336,146.6271 18.15552,-6.59836 -18.14929,-6.61548 z"
         id="path4310"
         inkscape:connector-curvature="0"
         style="fill:#000000;fill-rule:evenodd;stroke:#000000;stroke-width:4;stroke-linecap:butt" />
      <path
         d="m 150.0971,-42.00787 662.58264,0"
         id="path4312"
         inkscape:connector-curvature="0"
         style="fill:#000000;fill-opacity:0;fill-rule:nonzero" />
      <path
         d="m 150.0971,-42.00787 638.5827,0"
         id="path4314"
         inkscape:connector-curvature="0"
         style="fill-rule:evenodd;stroke:#000000;stroke-width:4;stroke-linecap:butt;stroke-linejoin:round" />
      <path
         d="m 788.6798,-35.40094 18.15234,-6.60693 -18.15234,-6.60694 z"
         id="path4316"
         inkscape:connector-curvature="0"
         style="fill:#000000;fill-rule:evenodd;stroke:#000000;stroke-width:4;stroke-linecap:butt" />
      <path
         d="m 232.9183,-113.20473 496.91342,0 0,77.16536 -496.91342,0 z"
         id="path4318"
         inkscape:connector-curvature="0"
         style="fill:#000000;fill-opacity:0;fill-rule:nonzero" />
      <path
         d="m 392.84375,-60.22205 0,-28.64063 3.78125,0 0,28.64063 -3.78125,0 z m 10.01953,0 0,-20.75 3.15625,0 0,2.95312 q 2.29688,-3.42187 6.60938,-3.42187 1.875,0 3.4375,0.6875 1.57812,0.67187 2.35937,1.76562 0.78125,1.09375 1.09375,2.59375 0.20313,0.96875 0.20313,3.42188 l 0,12.75 -3.51563,0 0,-12.625 q 0,-2.14063 -0.42187,-3.20313 -0.40625,-1.0625 -1.45313,-1.70312 -1.04687,-0.64063 -2.45312,-0.64063 -2.23438,0 -3.875,1.4375 -1.625,1.42188 -1.625,5.40625 l 0,11.32813 -3.51563,0 z m 20.83984,-6.1875 3.46875,-0.54688 q 0.29688,2.07813 1.625,3.20313 1.34375,1.10937 3.75,1.10937 2.42188,0 3.59375,-0.98437 1.17188,-0.98438 1.17188,-2.3125 0,-1.20313 -1.03125,-1.875 -0.71875,-0.46875 -3.59375,-1.20313 -3.875,-0.96875 -5.375,-1.67187 -1.48438,-0.71875 -2.26563,-1.98438 -0.76562,-1.26562 -0.76562,-2.78125 0,-1.39062 0.64062,-2.5625 0.64063,-1.1875 1.73438,-1.96875 0.8125,-0.60937 2.21875,-1.03125 1.42187,-0.42187 3.04687,-0.42187 2.4375,0 4.28125,0.70312 1.85938,0.70313 2.73438,1.90625 0.875,1.20313 1.20312,3.21875 l -3.4375,0.46875 q -0.23437,-1.60937 -1.35937,-2.5 -1.10938,-0.90625 -3.17188,-0.90625 -2.42187,0 -3.45312,0.8125 -1.03125,0.79688 -1.03125,1.875 0,0.67188 0.42187,1.21875 0.4375,0.57813 1.35938,0.9375 0.51562,0.20313 3.09375,0.90625 3.73437,1 5.20312,1.64063 1.48438,0.625 2.3125,1.84375 0.84375,1.20312 0.84375,3 0,1.75 -1.03125,3.3125 -1.01562,1.54687 -2.95312,2.40625 -1.92188,0.84375 -4.375,0.84375 -4.03125,0 -6.15625,-1.67188 -2.125,-1.6875 -2.70313,-4.98437 z m 29.07813,3.04687 0.51562,3.09375 q -1.48437,0.32813 -2.65625,0.32813 -1.92187,0 -2.98437,-0.60938 -1.04688,-0.60937 -1.48438,-1.59375 Q 445.75,-63.1283 445.75,-66.30018 l 0,-11.9375 -2.57813,0 0,-2.73437 2.57813,0 0,-5.125 3.5,-2.10938 0,7.23438 3.53125,0 0,2.73437 -3.53125,0 0,12.14063 q 0,1.5 0.1875,1.9375 0.1875,0.42187 0.59375,0.67187 0.42187,0.25 1.20312,0.25 0.59375,0 1.54688,-0.125 z m 3.39453,3.14063 0,-20.75 3.17188,0 0,3.15625 q 1.20312,-2.21875 2.23437,-2.92188 1.03125,-0.70312 2.25,-0.70312 1.78125,0 3.625,1.14062 l -1.21875,3.26563 q -1.28125,-0.76563 -2.57812,-0.76563 -1.15625,0 -2.07813,0.70313 -0.90625,0.6875 -1.29687,1.90625 -0.59375,1.875 -0.59375,4.10937 l 0,10.85938 -3.51563,0 z m 26.96094,0 0,-3.04688 q -2.42188,3.51563 -6.57813,3.51563 -1.84375,0 -3.4375,-0.70313 -1.59375,-0.70312 -2.35937,-1.76562 -0.76563,-1.0625 -1.07813,-2.60938 -0.21875,-1.03125 -0.21875,-3.28125 l 0,-12.85937 3.51563,0 0,11.51562 q 0,2.75 0.21875,3.70313 0.32812,1.39062 1.39062,2.1875 1.07813,0.78125 2.67188,0.78125 1.57812,0 2.95312,-0.8125 1.39063,-0.8125 1.96875,-2.20313 0.57813,-1.39062 0.57813,-4.04687 l 0,-11.125 3.51562,0 0,20.75 -3.14062,0 z m 22.18359,-7.59375 3.45313,0.4375 q -0.5625,3.57812 -2.90625,5.60937 -2.32813,2.01563 -5.71875,2.01563 -4.26563,0 -6.85938,-2.78125 -2.57812,-2.78125 -2.57812,-7.98438 0,-3.35937 1.10937,-5.875 1.125,-2.51562 3.39063,-3.78125 2.28125,-1.26562 4.95312,-1.26562 3.375,0 5.51563,1.71875 2.15625,1.70312 2.76562,4.84375 l -3.42187,0.53125 q -0.48438,-2.09375 -1.73438,-3.14063 -1.23437,-1.0625 -2.98437,-1.0625 -2.65625,0 -4.32813,1.90625 -1.65625,1.90625 -1.65625,6.03125 0,4.17188 1.59375,6.07813 1.60938,1.89062 4.1875,1.89062 2.07813,0 3.45313,-1.26562 1.39062,-1.28125 1.76562,-3.90625 z m 14.14063,4.45312 0.51562,3.09375 q -1.48437,0.32813 -2.65625,0.32813 -1.92187,0 -2.98437,-0.60938 -1.04688,-0.60937 -1.48438,-1.59375 -0.42187,-0.98437 -0.42187,-4.15625 l 0,-11.9375 -2.57813,0 0,-2.73437 2.57813,0 0,-5.125 3.5,-2.10938 0,7.23438 3.53125,0 0,2.73437 -3.53125,0 0,12.14063 q 0,1.5 0.1875,1.9375 0.1875,0.42187 0.59375,0.67187 0.42187,0.25 1.20312,0.25 0.59375,0 1.54688,-0.125 z m 3.45703,-21.45312 0,-4.04688 3.51562,0 0,4.04688 -3.51562,0 z m 0,24.59375 0,-20.75 3.51562,0 0,20.75 -3.51562,0 z m 7.55859,-10.375 q 0,-5.76563 3.20313,-8.53125 2.67187,-2.3125 6.53125,-2.3125 4.26562,0 6.98437,2.8125 2.71875,2.79687 2.71875,7.73437 0,4.01563 -1.20312,6.3125 -1.20313,2.28125 -3.5,3.5625 -2.29688,1.26563 -5,1.26563 -4.35938,0 -7.04688,-2.79688 -2.6875,-2.79687 -2.6875,-8.04687 z m 3.60938,0 q 0,3.98437 1.73437,5.96875 1.75,1.98437 4.39063,1.98437 2.60937,0 4.34375,-1.98437 1.75,-2 1.75,-6.07813 0,-3.85937 -1.75,-5.82812 -1.75,-1.98438 -4.34375,-1.98438 -2.64063,0 -4.39063,1.96875 -1.73437,1.96875 -1.73437,5.95313 z m 19.94922,10.375 0,-20.75 3.15625,0 0,2.95312 q 2.29687,-3.42187 6.60937,-3.42187 1.875,0 3.4375,0.6875 1.57813,0.67187 2.35938,1.76562 0.78125,1.09375 1.09375,2.59375 0.20312,0.96875 0.20312,3.42188 l 0,12.75 -3.51562,0 0,-12.625 q 0,-2.14063 -0.42188,-3.20313 -0.40625,-1.0625 -1.45312,-1.70312 -1.04688,-0.64063 -2.45313,-0.64063 -2.23437,0 -3.875,1.4375 -1.625,1.42188 -1.625,5.40625 l 0,11.32813 -3.51562,0 z"
         id="path4320"
         inkscape:connector-curvature="0"
         style="fill:#000000;fill-rule:nonzero" />
      <path
         d="m 481.375,-36.03937 0,0"
         id="path4322"
         inkscape:connector-curvature="0"
         style="fill:#000000;fill-opacity:0;fill-rule:nonzero" />
      <path
         d="m 481.375,-36.03937 0,0"
         id="path4324"
         inkscape:connector-curvature="0"
         style="fill-rule:nonzero;stroke:#000000;stroke-width:4;stroke-linecap:butt;stroke-linejoin:round" />
      <path
         d="m 481.38058,-39.03937 0,86.23621"
         id="path4326"
         inkscape:connector-curvature="0"
         style="fill:#000000;fill-opacity:0;fill-rule:nonzero" />
      <path
         d="m 481.38058,-39.03937 0,86.23621"
         id="path4328"
         inkscape:connector-curvature="0"
         style="fill-rule:nonzero;stroke:#000000;stroke-width:4;stroke-linecap:butt;stroke-linejoin:round;stroke-dasharray:16, 12" />
      <path
         d="m 36.850212,-152.47507 223.401548,0 0,77.16536 -223.401548,0 z"
         id="path4330"
         inkscape:connector-curvature="0"
         style="fill:#000000;fill-opacity:0;fill-rule:nonzero" />
      <path
         d="m 103.34006,-99.49239 0,-25.25 -9.4375,0 0,-3.39062 22.70312,0 0,3.39062 -9.48437,0 0,25.25 -3.78125,0 z m 15.38672,-10.375 q 0,-5.76562 3.20312,-8.53125 2.67188,-2.3125 6.53125,-2.3125 4.26563,0 6.98438,2.8125 2.71875,2.79688 2.71875,7.73438 0,4.01562 -1.20313,6.3125 -1.20312,2.28125 -3.5,3.5625 -2.29687,1.26562 -5,1.26562 -4.35937,0 -7.04687,-2.79687 -2.6875,-2.79688 -2.6875,-8.04688 z m 3.60937,0 q 0,3.98438 1.73438,5.96875 1.75,1.98438 4.39062,1.98438 2.60938,0 4.34375,-1.98438 1.75,-2 1.75,-6.07812 0,-3.85938 -1.75,-5.82813 -1.75,-1.98437 -4.34375,-1.98437 -2.64062,0 -4.39062,1.96875 -1.73438,1.96875 -1.73438,5.95312 z m 19.96485,10.375 0,-28.64062 3.51562,0 0,16.32812 8.32813,-8.4375 4.54687,0 -7.9375,7.70313 8.73438,13.04687 -4.32813,0 -6.85937,-10.60937 -2.48438,2.39062 0,8.21875 -3.51562,0 z m 34.18748,-6.6875 3.625,0.45313 q -0.85937,3.1875 -3.1875,4.95312 -2.3125,1.75 -5.9375,1.75 -4.54687,0 -7.21873,-2.79687 -2.65625,-2.8125 -2.65625,-7.875 0,-5.23438 2.6875,-8.125 2.70311,-2.89063 6.99998,-2.89063 4.15625,0 6.79688,2.84375 2.64062,2.82813 2.64062,7.96875 0,0.3125 -0.0312,0.9375 l -15.46873,0 q 0.20311,3.40625 1.93748,5.23438 1.73438,1.8125 4.34375,1.8125 1.92188,0 3.28125,-1.01563 1.375,-1.01562 2.1875,-3.25 z m -11.54687,-5.67187 11.57812,0 q -0.23437,-2.625 -1.32812,-3.9375 -1.67188,-2.03125 -4.35938,-2.03125 -2.42187,0 -4.07812,1.625 -1.64063,1.625 -1.8125,4.34375 z m 19.58984,12.35937 0,-20.75 3.15625,0 0,2.95313 q 2.29688,-3.42188 6.60938,-3.42188 1.875,0 3.4375,0.6875 1.57812,0.67188 2.35937,1.76563 0.78125,1.09375 1.09375,2.59375 0.20313,0.96875 0.20313,3.42187 l 0,12.75 -3.51563,0 0,-12.625 q 0,-2.14062 -0.42187,-3.20312 -0.40625,-1.0625 -1.45313,-1.70313 -1.04687,-0.64062 -2.45312,-0.64062 -2.23438,0 -3.875,1.4375 -1.625,1.42187 -1.625,5.40625 l 0,11.32812 -3.51563,0 z"
         id="path4332"
         inkscape:connector-curvature="0"
         style="fill:#000000;fill-rule:nonzero" />
      <path
         d="m 674.1313,-152.47507 251.77948,0 0,77.16536 -251.77948,0 z"
         id="path4334"
         inkscape:connector-curvature="0"
         style="fill:#000000;fill-opacity:0;fill-rule:nonzero" />
      <path
         d="m 690.8101,-99.49239 0,-28.64062 9.85938,0 q 3.34375,0 5.09375,0.42187 2.46875,0.5625 4.20312,2.04687 2.26563,1.90625 3.39063,4.89063 1.125,2.98438 1.125,6.8125 0,3.25 -0.76563,5.78125 -0.76562,2.51563 -1.95312,4.17188 -1.1875,1.64062 -2.60938,2.59375 -1.42187,0.9375 -3.42187,1.4375 -2,0.48437 -4.59375,0.48437 l -10.32813,0 z m 3.78125,-3.375 6.10938,0 q 2.84375,0 4.45312,-0.53125 1.60938,-0.53125 2.5625,-1.48437 1.34375,-1.34375 2.09375,-3.625 0.76563,-2.28125 0.76563,-5.51563 0,-4.5 -1.48438,-6.90625 -1.46875,-2.40625 -3.57812,-3.23438 -1.53125,-0.57812 -4.90625,-0.57812 l -6.01563,0 0,21.875 z m 38.85547,-3.3125 3.625,0.45313 q -0.85938,3.1875 -3.1875,4.95312 -2.3125,1.75 -5.9375,1.75 -4.54688,0 -7.21875,-2.79687 -2.65625,-2.8125 -2.65625,-7.875 0,-5.23438 2.6875,-8.125 2.70312,-2.89063 7,-2.89063 4.15625,0 6.79687,2.84375 2.64063,2.82813 2.64063,7.96875 0,0.3125 -0.0312,0.9375 l -15.46875,0 q 0.20312,3.40625 1.9375,5.23438 1.73437,1.8125 4.34375,1.8125 1.92187,0 3.28125,-1.01563 1.375,-1.01562 2.1875,-3.25 z m -11.54688,-5.67187 11.57813,0 q -0.23438,-2.625 -1.32813,-3.9375 -1.67187,-2.03125 -4.35937,-2.03125 -2.42188,0 -4.07813,1.625 -1.64062,1.625 -1.8125,4.34375 z m 19.58985,20.3125 0,-28.70313 3.20312,0 0,2.70313 q 1.125,-1.57813 2.54688,-2.375 1.4375,-0.79688 3.46875,-0.79688 2.65625,0 4.6875,1.375 2.03125,1.35938 3.0625,3.85938 1.03125,2.48437 1.03125,5.45312 0,3.1875 -1.14063,5.73438 -1.14062,2.54687 -3.32812,3.90625 -2.17188,1.35937 -4.5625,1.35937 -1.76563,0 -3.17188,-0.73437 -1.39062,-0.75 -2.28125,-1.89063 l 0,10.10938 -3.51562,0 z m 3.1875,-18.20313 q 0,4 1.60937,5.92188 1.625,1.90625 3.9375,1.90625 2.34375,0 4,-1.98438 1.67188,-1.98437 1.67188,-6.14062 0,-3.96875 -1.625,-5.9375 -1.625,-1.96875 -3.89063,-1.96875 -2.25,0 -3.98437,2.09375 -1.71875,2.09375 -1.71875,6.10937 z m 33.26172,3.5625 3.625,0.45313 q -0.85938,3.1875 -3.1875,4.95312 -2.3125,1.75 -5.9375,1.75 -4.54688,0 -7.21875,-2.79687 -2.65625,-2.8125 -2.65625,-7.875 0,-5.23438 2.6875,-8.125 2.70312,-2.89063 7,-2.89063 4.15625,0 6.79687,2.84375 2.64063,2.82813 2.64063,7.96875 0,0.3125 -0.0312,0.9375 l -15.46875,0 q 0.20312,3.40625 1.9375,5.23438 1.73437,1.8125 4.34375,1.8125 1.92187,0 3.28125,-1.01563 1.375,-1.01562 2.1875,-3.25 z m -11.54688,-5.67187 11.57813,0 q -0.23438,-2.625 -1.32813,-3.9375 -1.67187,-2.03125 -4.35937,-2.03125 -2.42188,0 -4.07813,1.625 -1.64062,1.625 -1.8125,4.34375 z m 19.58985,12.35937 0,-20.75 3.15625,0 0,2.95313 q 2.29687,-3.42188 6.60937,-3.42188 1.875,0 3.4375,0.6875 1.57813,0.67188 2.35938,1.76563 0.78125,1.09375 1.09375,2.59375 0.20312,0.96875 0.20312,3.42187 l 0,12.75 -3.51562,0 0,-12.625 q 0,-2.14062 -0.42188,-3.20312 -0.40625,-1.0625 -1.45312,-1.70313 -1.04688,-0.64062 -2.45313,-0.64062 -2.23437,0 -3.875,1.4375 -1.625,1.42187 -1.625,5.40625 l 0,11.32812 -3.51562,0 z m 35.69922,0 0,-2.625 q -1.96875,3.09375 -5.79688,3.09375 -2.48437,0 -4.5625,-1.35937 -2.07812,-1.375 -3.21875,-3.82813 -1.14062,-2.45312 -1.14062,-5.64062 0,-3.09375 1.03125,-5.625 1.03125,-2.53125 3.09375,-3.875 2.07812,-1.35938 4.64062,-1.35938 1.875,0 3.32813,0.79688 1.46875,0.79687 2.39062,2.0625 l 0,-10.28125 3.5,0 0,28.64062 -3.26562,0 z m -11.10938,-10.35937 q 0,3.98437 1.67188,5.96875 1.6875,1.96875 3.96875,1.96875 2.3125,0 3.92187,-1.875 1.60938,-1.89063 1.60938,-5.76563 0,-4.25 -1.64063,-6.23437 -1.64062,-2 -4.04687,-2 -2.34375,0 -3.92188,1.92187 -1.5625,1.90625 -1.5625,6.01563 z m 34.10547,3.67187 3.625,0.45313 q -0.85937,3.1875 -3.1875,4.95312 -2.3125,1.75 -5.9375,1.75 -4.54687,0 -7.21875,-2.79687 -2.65625,-2.8125 -2.65625,-7.875 0,-5.23438 2.6875,-8.125 2.70313,-2.89063 7,-2.89063 4.15625,0 6.79688,2.84375 2.64062,2.82813 2.64062,7.96875 0,0.3125 -0.0312,0.9375 l -15.46875,0 q 0.20313,3.40625 1.9375,5.23438 1.73438,1.8125 4.34375,1.8125 1.92188,0 3.28125,-1.01563 1.375,-1.01562 2.1875,-3.25 z m -11.54687,-5.67187 11.57812,0 q -0.23437,-2.625 -1.32812,-3.9375 -1.67188,-2.03125 -4.35938,-2.03125 -2.42187,0 -4.07812,1.625 -1.64063,1.625 -1.8125,4.34375 z m 19.58984,12.35937 0,-20.75 3.15625,0 0,2.95313 q 2.29688,-3.42188 6.60938,-3.42188 1.875,0 3.4375,0.6875 1.57812,0.67188 2.35937,1.76563 0.78125,1.09375 1.09375,2.59375 0.20313,0.96875 0.20313,3.42187 l 0,12.75 -3.51563,0 0,-12.625 q 0,-2.14062 -0.42187,-3.20312 -0.40625,-1.0625 -1.45313,-1.70313 -1.04687,-0.64062 -2.45312,-0.64062 -2.23438,0 -3.875,1.4375 -1.625,1.42187 -1.625,5.40625 l 0,11.32812 -3.51563,0 z m 35.77735,-7.59375 3.45312,0.4375 q -0.5625,3.57813 -2.90625,5.60938 -2.32812,2.01562 -5.71875,2.01562 -4.26562,0 -6.85937,-2.78125 -2.57813,-2.78125 -2.57813,-7.98437 0,-3.35938 1.10938,-5.875 1.125,-2.51563 3.39062,-3.78125 2.28125,-1.26563 4.95313,-1.26563 3.375,0 5.51562,1.71875 2.15625,1.70313 2.76563,4.84375 l -3.42188,0.53125 q -0.48437,-2.09375 -1.73437,-3.14062 -1.23438,-1.0625 -2.98438,-1.0625 -2.65625,0 -4.32812,1.90625 -1.65625,1.90625 -1.65625,6.03125 0,4.17187 1.59375,6.07812 1.60937,1.89063 4.1875,1.89063 2.07812,0 3.45312,-1.26563 1.39063,-1.28125 1.76563,-3.90625 z m 6.3125,15.57813 -0.39063,-3.29688 q 1.15625,0.3125 2.01563,0.3125 1.17187,0 1.875,-0.39062 0.70312,-0.39063 1.14062,-1.09375 0.34375,-0.53125 1.07813,-2.60938 0.0937,-0.29687 0.3125,-0.85937 l -7.875,-20.79688 3.79687,0 4.3125,12.01563 q 0.84375,2.28125 1.5,4.8125 0.60938,-2.42188 1.45313,-4.73438 l 4.4375,-12.09375 3.51562,0 -7.89062,21.10938 q -1.28125,3.40625 -1.98438,4.70312 -0.9375,1.73438 -2.15625,2.54688 -1.20312,0.8125 -2.875,0.8125 -1.01562,0 -2.26562,-0.4375 z"
         id="path4336"
         inkscape:connector-curvature="0"
         style="fill:#000000;fill-rule:nonzero" />
    </g>
  </g>
</svg>
